
<svg viewBox="0 0 79.536 79.535" >
<g>
	<path style="fill:#010002;" d="M69.03,8.349l-10.444,9.72H20.94l-10.444-9.72c0,0,5.202-7.28,13.769-8.235
		c8.389-0.935,11.301,4.209,15.506,4.422c4.191-0.212,7.112-5.357,15.49-4.422C63.836,1.068,69.03,8.349,69.03,8.349z
		 M41.208,55.012v7.337c1.113-0.176,2.024-0.605,2.719-1.305c0.699-0.704,1.051-1.518,1.051-2.454c0-0.834-0.3-1.564-0.885-2.165
		C43.506,55.809,42.543,55.348,41.208,55.012z M35.092,45.618c0,0.668,0.24,1.279,0.717,1.849c0.477,0.58,1.199,1.035,2.162,1.388
		v-6.509c-0.878,0.243-1.574,0.673-2.092,1.279C35.354,44.23,35.092,44.883,35.092,45.618z M75.363,70.836
		c0,0-2.269,8.699-12.707,8.699H16.896c-10.452,0-12.72-8.699-12.72-8.699c-6.835-30.155,13.95-46.508,13.95-46.508h43.287
		C61.413,24.328,82.187,40.686,75.363,70.836z M50.435,57.916c0-2.04-0.642-3.697-1.942-4.996c-1.294-1.301-3.718-2.352-7.285-3.175
		V42.4c1.439,0.52,2.33,1.529,2.677,3l5.64-0.615c-0.389-1.875-1.284-3.377-2.672-4.495c-1.398-1.118-3.283-1.799-5.645-2.043
		v-1.866h-3.236v1.866c-2.556,0.212-4.601,1.021-6.139,2.413c-1.543,1.401-2.307,3.125-2.307,5.181c0,2.04,0.673,3.754,2.04,5.188
		c1.359,1.419,3.495,2.48,6.405,3.185v7.871c-0.8-0.321-1.53-0.85-2.183-1.574c-0.652-0.735-1.098-1.601-1.336-2.595l-5.817,0.523
		c0.44,2.47,1.468,4.381,3.076,5.732c1.605,1.361,3.689,2.164,6.26,2.423v3.423h3.236v-3.516c2.899-0.348,5.157-1.305,6.783-2.858
		C49.622,62.095,50.435,60.18,50.435,57.916z"/>
</g>

</svg>
