<svg viewBox="0 0 612 612"><path d="M322.811 180.999c-4.59-4.571-10.882-6.005-16.811-4.953-5.929-1.052-12.221.382-16.811 4.953l-108.19 108.19c-7.478 7.478-7.478 19.584 0 27.042 7.478 7.479 19.584 7.479 27.043 0l78.833-78.813v202.457c0 10.557 8.568 19.125 19.125 19.125s19.125-8.568 19.125-19.125V237.418l78.814 78.813c7.478 7.479 19.584 7.479 27.042 0 7.479-7.478 7.479-19.583 0-27.042l-108.17-108.19zM306 0C137.012 0 0 136.992 0 306s137.012 306 306 306c169.008 0 306-137.012 306-306S475.008 0 306 0zm0 573.75C158.125 573.75 38.25 453.875 38.25 306S158.125 38.25 306 38.25 573.75 158.125 573.75 306 453.875 573.75 306 573.75z"/></svg>