<svg viewBox="0 0 256 256"><path d="M128 203.313c-3.534 0-6-2.865-6-6.4V74.878l-45.956 47.141c-2.463 2.538-6.616 2.597-9.149.138-1.295-1.256-1.995-2.925-1.995-4.594 0-1.606.576-3.216 1.782-4.456l56.737-58.466a6.387 6.387 0 019.178 0l56.743 58.466c2.459 2.528 2.401 6.584-.139 9.05-2.534 2.459-6.789 2.4-9.251-.138L134 74.878v122.034c0 3.535-2.466 6.401-6 6.401zM128 256c70.578 0 128-57.422 128-128S198.578 0 128 0 0 57.422 0 128s57.422 128 128 128zm0-12.8c-63.521 0-115.2-51.679-115.2-115.2S64.479 12.8 128 12.8 243.2 64.479 243.2 128 191.521 243.2 128 243.2z"/></svg>