<svg xmlns="http://www.w3.org/2000/svg" height="1000" width="1000"><path d="M857.2 853.7c-7.8-24.9-16.7-49.4-25.1-74.2-18.5-54.7-36.6-109.4-55.3-163.9-7.4-21.8-23.7-33.3-46.5-35-20.5-1.6-42.2 9.6-48.4 28.9-4.5 13.9-11.8 15.1-23.6 15.1-108.9.1-217.6.5-326.5 1.1-7.1 0-8.9-2.8-10.9-8.9-7.4-23.1-26-36.4-48.7-36.3-23 .2-41.4 13.3-49.4 36.2-7.3 20.6-14 41.4-20.9 62.1-19.8 58.6-39.9 117.1-59.2 176-13.7 41.8 17 83.1 62.4 81.9-6.7-3-11.8-4.7-16.5-7.3-23.4-12.4-32.3-41.7-19.6-64.2 10.9-19.3 34-25.9 53.6-15.1 16 8.8 22.2 28.3 13.5 43.8-3.2 5.7-6.8 13-15.1 9.6-8.8-3.7-6.3-10.5-2.1-16.5 5.2-7.5 3.1-14.3-3.2-19.3-7.2-5.9-15.4-6.8-23.5-1-13.9 9.9-14.2 31.2-.5 42.8 21.5 18.2 52.4 7.2 61.1-22.8 20.6-71.8 41-143.5 59.6-215.7 3.4-13.3 8.9-14.3 19.3-14.3 111.3.3 222.6.6 333.9-.1 14.6-.1 19.8 5.3 23.3 18.2 18.2 67.5 37.1 134.7 55.7 202 2.7 10 5.4 20 12.4 28.1 15.2 17.9 44 17.3 57-1.4 8.2-11.8 5.4-23.6-2.8-33.5-5.8-6.9-14.7-9-23.3-4.4-12.3 6.7-10.7 15.8-4.1 25.9 2.5 3.8 1.7 8.3-2.5 11.3-5.3 3.9-9 .8-12.7-2.7-10.2-9.8-11.3-28.4-1.8-40.2 9.9-12.3 22.3-18.3 38.5-14 17.2 4.6 27 15.8 30.4 32.7 5.2 26.1-4.4 40-40.6 58.9 48.6-3 75.6-40.6 62.1-83.8zM295.7 634.9c-17.2 64.9-34.8 129.7-52.2 194.6-2.6 9.7-6 13.6-15 5.3-8.8-8-20-12.4-31.7-12.3-13 .2-15-3.6-10.9-15.4C206.6 747 227 686.7 247 626.3c4.1-12.4 10.9-20 21.2-20.4 21-.5 31.9 12.1 27.5 29zm490.9 191.5c-8.8 3.6-17 8.9-26.7 14.2-18.7-69.3-37.2-137.7-55.7-206.2-3.7-13.7 2.2-22.8 15-26.8 12.7-3.9 26.3-2.2 31 11.4 23.4 66.9 45.5 134.1 68.6 202.8-12.5-.7-22.8.7-32.2 4.6zM360.3 252.5c93.1-.1 186.2-.1 279.3-.1 4.1 0 10.5 1.1 11-3.8 1.4-12.6 1.5-25.4 1.2-38.2-.2-10.6-9.6-6.6-15.2-8.6-6-2.2-4.6-7.8-5.3-12.4-4.2-30-17.9-54.9-43.6-80 0 21.8.1 38.6 0 55.4 0 6 1.2 13-8.4 12.5-8.4-.4-6.9-6.8-7-12.1-.1-17.1-1.1-34.1.3-51.1 1.1-14-5.1-20.7-16.9-26.4-13.5-6.5-16.1-2.5-15.8 11 .8 29.8.4 59.6 0 89.4-.1 4.5 3.8 13.1-4.9 12.8-8-.4-4.6-8.7-4.6-13.4-.3-34.7-.4-69.4 0-104 .1-14.4-6.7-21.2-20.9-21.2-4.9 0-9.7-.1-14.6 0-20.8.4-24.7 4-24.9 24.4-.2 33.4.1 66.9-.2 100.4 0 4.9 3 13.5-4.4 13.7-9.6.4-5.6-9-5.6-14.1-.4-34-.2-67.8-.2-102.1-30.9 7-32.3 8.7-32 37.1.1 12.8.8 25.6 0 38.3-.4 6.2 4.5 16.6-7.4 17.1-12.3.4-7.8-10.1-8.1-16.4-.6-15.5-.2-31-.2-50.8-24.5 22.8-37.4 46.7-42.6 74.7-1.8 9.5-.7 19.9-15.5 18.5-4.6-.4-4.8 4.6-4.9 8.2-.1 10.3 0 20.7-.3 31 0 8.7 4.7 10.2 11.7 10.2zm270.6 21c-43.8.3-87.4.1-131.2.1h-122c-25 0-25 .1-19.2 24 16.3 66.9 78.5 113.6 148 111 66.4-2.5 125.5-55.2 137.5-121.3 2.3-13.4-3-13.9-13.1-13.8zM403.8 529c42.9-.7 85.8-.3 128.8-.3 21.9 0 43.8-.3 65.5.1 9.5.2 14.5-2.4 14.4-13.2-.5-28.5 0-57.1-.3-85.7-.2-20.3-19-11.8-28.4-17.8-9.5-6-11.3 2.9-14.5 7.9-15 22.8-29.4 45.9-44.5 68.4-12 17.9-41 16-52.3-2.5-13.7-22.2-27.7-44.2-41.5-66.3-3.9-6.1-6.8-14.4-16.4-8.7-9.6 5.8-27.1.9-26.5 20.9.9 27.3.6 54.7-.1 82-.3 12 4 15.3 15.8 15.2zm335.7 383.5c-4.6-6.7-10.8-6.8-17.6-6.8l-445.1.1c-5.3 0-10.9-.8-14.7 4.8-7.9 11.6-19 19.4-31 26.9h539.3c-11.6-7.2-23.1-13.8-30.9-25zM376.4 591.6c-.8 11.3 2.9 14.8 14.1 14.6 36.4-.6 72.9-.3 109.4-.3 35.3 0 70.5-.9 105.8.4 16.2.6 19.4-5.4 18.5-19.8-.9-12.5 1.3-22.7-18.1-22.1-65.6 1.7-131.3 1.1-197 1.7-31.4.3-30.9.6-32.7 25.5zm13.9 124.8c.9-4.2 5.4-10.2-1-12.9-5.3-2.3-12.6-3-17.3 1.1-3.2 2.7-4.5 8.3-5.7 12.9-13.7 48.4-27.3 96.8-40.1 145.4-1.2 4.8-10.7 15.4 2.9 16.5 8.8.8 22.6 7.7 26-9.8 3.1-15.5 7.5-30.6 10.3-46.1 2.3-12.5 7-18.6 21.3-17.6 20.6 1.5 41.3.4 62 .4 21.9 0 43.8.2 65.5-.1 8.2-.1 19.1 3.9 18.1-12.1-.7-12.9-4.7-17.6-18.5-17.3-40.7 1-81.4 0-122.1.6-11.8.2-15.1-3.3-12.1-14.8 4.2-15.3 7.5-30.7 10.7-46.2zm-90.1-148.6c14.7 5.3 25.6 15.8 33.6 29.2 2.8 4.8 5 10.3 12 8.5 7.5-1.9 5.4-9 5.6-13.7.5-25.4.3-50.8.3-76.3h1.1c0-23.6.1-47.3-.1-70.9 0-3.9 1.7-8.8-4.1-10.7-8.3-2.7-37.7 13.7-39.4 22.5-6 32.1-11.6 64.3-17.4 96.4-1.4 7.6.5 12.1 8.4 15zm348-123.9c.4 24.9.2 49.8.2 74.7h-.1c0 24.3-.2 48.6.2 72.9.1 4.8-2.9 11.6 4.6 14 7.4 2.4 10.9-2.7 13.7-8.3 7.1-13.4 17.4-23.5 31.8-28.5 9.3-3.3 11.4-8.7 9.6-17.9-5-25.6-11.6-51.2-13-77-1.4-24.4-14.8-33.2-35-38.5-8.8-2.4-12.1-1-12 8.6zm-23.2 243c-2.4-10.2-7.4-12-16.3-11.9-25.5.4-50.9.1-76.5.1v-.2c-26.1 0-52.2.6-78.2-.3-11.6-.4-16.8 2.9-16.6 14.9.2 14.1 10.6 8.9 17.1 9 44.9.4 89.8 1.1 134.7-.3 15.8-.4 21.5 5.4 23.7 19.5 1.8 11.4 5.2 22.4 7.4 33.7 2.3 11.4 11 7.5 17.4 7.3 9.7-.5 5.2-8.1 4-12.3-5.3-19.9-12-39.5-16.7-59.5zm7.8 169.6c-13.9-.6-27.9-.4-41.9 0-5.8.2-14.7-3.4-14 8.3.5 9.3 2.4 16.5 14.7 15.5 12.1-1 24.3-.3 36.4-.3v-.1c13.4 0 26.7.1 40.1-.1 4.6-.1 10.9 1.1 8.7-7.2-6.6-23.9-12.7-48-20.3-71.7-3-9.2-12.8-5.2-19.3-4.6-9.9.9-3.9 8.1-3 12.4 2.4 11.9 5.1 23.7 8 35.4 2 8.5.5 12.7-9.4 12.4z"/></svg>