<svg viewBox="0 0 96 96"><path d="M70.113 88.587s1.005-6.036-5.193-13.407c6.033-16.923 6.87-32.334 6.87-32.334s12.399 2.85 12.399 15.078c-.003 20.943-14.076 30.663-14.076 30.663zm-34.176-7.353s-8.304-26.649-8.304-37.704c0-4.974.561-9.399 1.434-13.416h37.83a62.278 62.278 0 011.443 13.419c0 10.887-8.28 37.701-8.28 37.701H35.937zM47.97 36.207a7.708 7.708 0 000 15.414 7.706 7.706 0 007.707-7.707c.003-4.257-3.45-7.707-7.707-7.707zM46.314 1.788V-8.706h3V1.521c3.429 2.496 12.708 10.434 16.905 25.725h-36.48C33.795 12.375 42.627 4.524 46.314 1.788zM25.887 88.587s-14.073-9.72-14.073-30.663c0-12.228 12.399-15.078 12.399-15.078s.837 15.411 6.867 32.334c-6.201 7.374-5.193 13.407-5.193 13.407zm27.186 1.548l-2.514-2.514L47.88 96l-3.186-8.379-2.178 4.353-3.186-7.875h17.256l-3.513 6.036z"/></svg>